<mxfile host="app.diagrams.net" agent="Mozilla/5.0 (Windows NT 10.0; Win64; x64) AppleWebKit/537.36 (KHTML, like Gecko) Chrome/137.0.0.0 Safari/537.36" version="27.1.6">
  <diagram name="Page-1" id="FXs1bxIN7TdrKvlHPAOR">
    <mxGraphModel dx="1188" dy="619" grid="1" gridSize="10" guides="1" tooltips="1" connect="1" arrows="1" fold="1" page="1" pageScale="1" pageWidth="850" pageHeight="1100" math="0" shadow="0">
      <root>
        <mxCell id="0" />
        <mxCell id="1" parent="0" />
        <mxCell id="yeM5Ij0gTFEtDUQy7v0Z-14" style="edgeStyle=orthogonalEdgeStyle;rounded=0;orthogonalLoop=1;jettySize=auto;html=1;entryX=0;entryY=0.5;entryDx=0;entryDy=0;endArrow=none;startFill=0;" edge="1" parent="1" source="yeM5Ij0gTFEtDUQy7v0Z-1" target="yeM5Ij0gTFEtDUQy7v0Z-3">
          <mxGeometry relative="1" as="geometry">
            <Array as="points">
              <mxPoint x="285" y="380" />
            </Array>
          </mxGeometry>
        </mxCell>
        <mxCell id="yeM5Ij0gTFEtDUQy7v0Z-1" value="Music Play Store" style="rounded=1;arcSize=10;whiteSpace=wrap;html=1;align=center;" vertex="1" parent="1">
          <mxGeometry x="235" y="440" width="100" height="40" as="geometry" />
        </mxCell>
        <mxCell id="yeM5Ij0gTFEtDUQy7v0Z-15" style="edgeStyle=orthogonalEdgeStyle;rounded=0;orthogonalLoop=1;jettySize=auto;html=1;entryX=1;entryY=0.5;entryDx=0;entryDy=0;endArrow=none;startFill=0;" edge="1" parent="1" source="yeM5Ij0gTFEtDUQy7v0Z-2" target="yeM5Ij0gTFEtDUQy7v0Z-3">
          <mxGeometry relative="1" as="geometry">
            <Array as="points">
              <mxPoint x="565" y="380" />
            </Array>
          </mxGeometry>
        </mxCell>
        <mxCell id="yeM5Ij0gTFEtDUQy7v0Z-2" value="Radio Play Store" style="rounded=1;arcSize=10;whiteSpace=wrap;html=1;align=center;" vertex="1" parent="1">
          <mxGeometry x="515" y="440" width="100" height="40" as="geometry" />
        </mxCell>
        <mxCell id="yeM5Ij0gTFEtDUQy7v0Z-3" value="Background Play Store" style="rounded=1;arcSize=10;whiteSpace=wrap;html=1;align=center;" vertex="1" parent="1">
          <mxGeometry x="385" y="360" width="80" height="40" as="geometry" />
        </mxCell>
        <mxCell id="yeM5Ij0gTFEtDUQy7v0Z-10" style="edgeStyle=orthogonalEdgeStyle;rounded=0;orthogonalLoop=1;jettySize=auto;html=1;entryX=0.5;entryY=1;entryDx=0;entryDy=0;endArrow=none;startFill=0;" edge="1" parent="1" source="yeM5Ij0gTFEtDUQy7v0Z-4" target="yeM5Ij0gTFEtDUQy7v0Z-1">
          <mxGeometry relative="1" as="geometry" />
        </mxCell>
        <mxCell id="yeM5Ij0gTFEtDUQy7v0Z-4" value="Music Control Component" style="whiteSpace=wrap;html=1;align=center;" vertex="1" parent="1">
          <mxGeometry x="235" y="560" width="100" height="40" as="geometry" />
        </mxCell>
        <mxCell id="yeM5Ij0gTFEtDUQy7v0Z-11" style="edgeStyle=orthogonalEdgeStyle;rounded=0;orthogonalLoop=1;jettySize=auto;html=1;entryX=0.5;entryY=1;entryDx=0;entryDy=0;endArrow=none;startFill=0;" edge="1" parent="1" source="yeM5Ij0gTFEtDUQy7v0Z-5" target="yeM5Ij0gTFEtDUQy7v0Z-2">
          <mxGeometry relative="1" as="geometry" />
        </mxCell>
        <mxCell id="yeM5Ij0gTFEtDUQy7v0Z-5" value="Radio Control Component" style="whiteSpace=wrap;html=1;align=center;" vertex="1" parent="1">
          <mxGeometry x="515" y="560" width="100" height="40" as="geometry" />
        </mxCell>
        <mxCell id="yeM5Ij0gTFEtDUQy7v0Z-18" style="edgeStyle=orthogonalEdgeStyle;rounded=0;orthogonalLoop=1;jettySize=auto;html=1;entryX=0.5;entryY=0;entryDx=0;entryDy=0;endArrow=none;startFill=0;" edge="1" parent="1" source="yeM5Ij0gTFEtDUQy7v0Z-16" target="yeM5Ij0gTFEtDUQy7v0Z-3">
          <mxGeometry relative="1" as="geometry" />
        </mxCell>
        <mxCell id="yeM5Ij0gTFEtDUQy7v0Z-16" value="Other Apps" style="rounded=1;arcSize=10;whiteSpace=wrap;html=1;align=center;" vertex="1" parent="1">
          <mxGeometry x="220" y="270" width="100" height="40" as="geometry" />
        </mxCell>
        <mxCell id="yeM5Ij0gTFEtDUQy7v0Z-24" style="edgeStyle=orthogonalEdgeStyle;rounded=0;orthogonalLoop=1;jettySize=auto;html=1;entryX=0.25;entryY=1;entryDx=0;entryDy=0;endArrow=none;startFill=0;" edge="1" parent="1" source="yeM5Ij0gTFEtDUQy7v0Z-21" target="yeM5Ij0gTFEtDUQy7v0Z-2">
          <mxGeometry relative="1" as="geometry" />
        </mxCell>
        <mxCell id="yeM5Ij0gTFEtDUQy7v0Z-25" style="edgeStyle=orthogonalEdgeStyle;rounded=0;orthogonalLoop=1;jettySize=auto;html=1;entryX=0.75;entryY=1;entryDx=0;entryDy=0;endArrow=none;startFill=0;" edge="1" parent="1" source="yeM5Ij0gTFEtDUQy7v0Z-21" target="yeM5Ij0gTFEtDUQy7v0Z-1">
          <mxGeometry relative="1" as="geometry" />
        </mxCell>
        <mxCell id="yeM5Ij0gTFEtDUQy7v0Z-21" value="Pubsub" style="rounded=1;arcSize=10;whiteSpace=wrap;html=1;align=center;" vertex="1" parent="1">
          <mxGeometry x="375" y="490" width="100" height="40" as="geometry" />
        </mxCell>
      </root>
    </mxGraphModel>
  </diagram>
</mxfile>
